# xmcd
#
# Track frame offsets:
# 150
# 11613
# 27670
# 48394
# 70978
# 86455
# 104854
# 127270
# 148361
# 170754
#
# Disc length: 2677 seconds
#
#
# Revision: 1
# Processed by: cddbd v1.5.2PL0 Copyright (c) Steve Scherf et al.
# Submitted via: FreeRIP 2.96 
#
DISCID=9d0a730a
DTITLE=Third Time 'Round [AUS] - Tell Me
DYEAR=2016
DGENRE=Blues
TTITLE0=What a Shame [from 'Tell Me', Jan 2016] [FLVox]
TTITLE1=Got It Good [from 'Tell Me', Jan 2016] [FLVox]
TTITLE2=A Hold on Me [from 'Tell Me', Jan 2016] [FLVox]
TTITLE3=Staring at Raindrops [from 'Tell Me', Jan 2016] [FLVox]
TTITLE4=Away from the World [from 'Tell Me', Jan 2016] [FLVox]
TTITLE5=Speechless [from 'Tell Me', Jan 2016] [FLVox]
TTITLE6=Maybe Tomorrow [from 'Tell Me', Jan 2016] [FLVox]
TTITLE7=Wrapped Up Loving You [from 'Tell Me', Jan 2016] [FLVox]
TTITLE8=Coming Down with the Blues [from 'Tell Me', Jan 2016] [FLVox]
TTITLE9=Tell Me [from 'Tell Me', Jan 2016] [FLVox]
EXTD=Australian band originating from Bunbury, Western Australia
EXTT0=
EXTT1=
EXTT2=
EXTT3=
EXTT4=
EXTT5=
EXTT6=
EXTT7=
EXTT8=
EXTT9=
PLAYORDER=
